HIERARCHY
ROOT Hips
{
  OFFSET 5.80788e-005 67.184 3.4734
  CHANNELS 6 Xposition Yposition Zposition Zrotation Xrotation Yrotation
  JOINT Chest
  {
    OFFSET 0 8.7983 -4.7612
    CHANNELS 3 Zrotation Xrotation Yrotation
    JOINT Chest2
    {
      OFFSET 0 8.0291 0.4195
      CHANNELS 3 Zrotation Xrotation Yrotation
      JOINT Chest3
      {
        OFFSET 0 9.9351 -2.2114
        CHANNELS 3 Zrotation Xrotation Yrotation
        JOINT Neck
        {
          OFFSET 0 22.3885 -0.4656
          CHANNELS 3 Zrotation Xrotation Yrotation
          JOINT Head
          {
            OFFSET -0.0001 12.643 3.4389
            CHANNELS 3 Zrotation Xrotation Yrotation
            End Site
            {
              OFFSET 0.0001 17.6655 0.5274
            }
          }
        }
        JOINT LeftCollar
        {
          OFFSET 2.2603 21.606 7.4023
          CHANNELS 3 Zrotation Xrotation Yrotation
          JOINT LeftShoulder
          {
            OFFSET 13.5163 -1.1332 -5.0146
            CHANNELS 3 Zrotation Xrotation Yrotation
            JOINT LeftElbow
            {
              OFFSET -0.0995 -28.05 -0.2431
              CHANNELS 3 Zrotation Xrotation Yrotation
              JOINT LeftWrist
              {
                OFFSET 0.0679 -23.3996 -0.1402
                CHANNELS 3 Zrotation Xrotation Yrotation
                JOINT LeftFinger1
                {
                  OFFSET 0.7932 -9.069 2.5189
                  CHANNELS 3 Zrotation Xrotation Yrotation
                  JOINT LeftFinger11
                  {
                    OFFSET -0.8272 -3.3923 0.5977
                    CHANNELS 3 Zrotation Xrotation Yrotation
                    JOINT LeftFinger12
                    {
                      OFFSET -0.5649 -2.3158 0.4082
                      CHANNELS 3 Zrotation Xrotation Yrotation
                      End Site
                      {
                        OFFSET -0.4919 -1.6479 0.2673
                      }
                    }
                  }
                }
                JOINT LeftFinger2
                {
                  OFFSET 0.9159 -9.2044 0.2193
                  CHANNELS 3 Zrotation Xrotation Yrotation
                  JOINT LeftFinger21
                  {
                    OFFSET 0.0117 -4.1944 -0.0248
                    CHANNELS 3 Zrotation Xrotation Yrotation
                    JOINT LeftFinger22
                    {
                      OFFSET 0.0071 -2.3249 -0.0142
                      CHANNELS 3 Zrotation Xrotation Yrotation
                      End Site
                      {
                        OFFSET -0.1475 -2.0882 0.0028
                      }
                    }
                  }
                }
                JOINT LeftFinger3
                {
                  OFFSET 0.6113 -8.7231 -2.0637
                  CHANNELS 3 Zrotation Xrotation Yrotation
                  JOINT LeftFinger31
                  {
                    OFFSET -0.1927 -3.8059 -0.2383
                    CHANNELS 3 Zrotation Xrotation Yrotation
                    JOINT LeftFinger32
                    {
                      OFFSET -0.1091 -2.1688 -0.1362
                      CHANNELS 3 Zrotation Xrotation Yrotation
                      End Site
                      {
                        OFFSET -0.2358 -1.9176 -0.0906
                      }
                    }
                  }
                }
                JOINT LeftFinger4
                {
                  OFFSET -0.6151 -8.0947 -3.5641
                  CHANNELS 3 Zrotation Xrotation Yrotation
                  JOINT LeftFinger41
                  {
                    OFFSET -0.4882 -2.341 -0.6462
                    CHANNELS 3 Zrotation Xrotation Yrotation
                    JOINT LeftFinger42
                    {
                      OFFSET -0.3575 -1.7167 -0.4742
                      CHANNELS 3 Zrotation Xrotation Yrotation
                      End Site
                      {
                        OFFSET -0.4187 -1.5237 -0.3496
                      }
                    }
                  }
                }
                JOINT LeftFinger0
                {
                  OFFSET -1.42 -1.8761 1.4223
                  CHANNELS 3 Zrotation Xrotation Yrotation
                  JOINT LeftFinger01
                  {
                    OFFSET -1.1471 -3.4929 2.6334
                    CHANNELS 3 Zrotation Xrotation Yrotation
                    JOINT LeftFinger02
                    {
                      OFFSET -0.823 -2.3 1.6571
                      CHANNELS 3 Zrotation Xrotation Yrotation
                      End Site
                      {
                        OFFSET -0.5822 -1.6914 1.1582
                      }
                    }
                  }
                }
              }
            }
          }
        }
        JOINT RightCollar
        {
          OFFSET -2.2603 21.606 7.4023
          CHANNELS 3 Zrotation Xrotation Yrotation
          JOINT RightShoulder
          {
            OFFSET -13.5187 -1.1334 -5.0155
            CHANNELS 3 Zrotation Xrotation Yrotation
            JOINT RightElbow
            {
              OFFSET 0.0994 -28.0499 -0.2431
              CHANNELS 3 Zrotation Xrotation Yrotation
              JOINT RightWrist
              {
                OFFSET -0.0679 -23.3996 -0.1402
                CHANNELS 3 Zrotation Xrotation Yrotation
                JOINT RightFinger1
                {
                  OFFSET -0.7932 -9.0691 2.5189
                  CHANNELS 3 Zrotation Xrotation Yrotation
                  JOINT RightFinger11
                  {
                    OFFSET 0.8272 -3.3923 0.5977
                    CHANNELS 3 Zrotation Xrotation Yrotation
                    JOINT RightFinger12
                    {
                      OFFSET 0.565 -2.3158 0.4082
                      CHANNELS 3 Zrotation Xrotation Yrotation
                      End Site
                      {
                        OFFSET 0.4919 -1.6479 0.2673
                      }
                    }
                  }
                }
                JOINT RightFinger2
                {
                  OFFSET -0.916 -9.2044 0.2193
                  CHANNELS 3 Zrotation Xrotation Yrotation
                  JOINT RightFinger21
                  {
                    OFFSET -0.0117 -4.1944 -0.0248
                    CHANNELS 3 Zrotation Xrotation Yrotation
                    JOINT RightFinger22
                    {
                      OFFSET -0.0071 -2.3249 -0.0142
                      CHANNELS 3 Zrotation Xrotation Yrotation
                      End Site
                      {
                        OFFSET 0.1475 -2.0882 0.0028
                      }
                    }
                  }
                }
                JOINT RightFinger3
                {
                  OFFSET -0.6113 -8.7231 -2.0637
                  CHANNELS 3 Zrotation Xrotation Yrotation
                  JOINT RightFinger31
                  {
                    OFFSET 0.1927 -3.8059 -0.2383
                    CHANNELS 3 Zrotation Xrotation Yrotation
                    JOINT RightFinger32
                    {
                      OFFSET 0.1091 -2.1688 -0.1362
                      CHANNELS 3 Zrotation Xrotation Yrotation
                      End Site
                      {
                        OFFSET 0.2358 -1.9176 -0.0906
                      }
                    }
                  }
                }
                JOINT RightFinger4
                {
                  OFFSET 0.6151 -8.0947 -3.564
                  CHANNELS 3 Zrotation Xrotation Yrotation
                  JOINT RightFinger41
                  {
                    OFFSET 0.4882 -2.341 -0.6462
                    CHANNELS 3 Zrotation Xrotation Yrotation
                    JOINT RightFinger42
                    {
                      OFFSET 0.3574 -1.7166 -0.4742
                      CHANNELS 3 Zrotation Xrotation Yrotation
                      End Site
                      {
                        OFFSET 0.4187 -1.5237 -0.3496
                      }
                    }
                  }
                }
                JOINT RightFinger0
                {
                  OFFSET 1.4199 -1.8761 1.4221
                  CHANNELS 3 Zrotation Xrotation Yrotation
                  JOINT RightFinger01
                  {
                    OFFSET 1.1472 -3.4929 2.6336
                    CHANNELS 3 Zrotation Xrotation Yrotation
                    JOINT RightFinger02
                    {
                      OFFSET 0.8229 -2.3 1.6571
                      CHANNELS 3 Zrotation Xrotation Yrotation
                      End Site
                      {
                        OFFSET 0.5822 -1.6914 1.1582
                      }
                    }
                  }
                }
              }
            }
          }
        }
      }
    }
  }
  JOINT RightHip
  {
    OFFSET -9.412 3.9771 -0.7758
    CHANNELS 3 Zrotation Xrotation Yrotation
    JOINT RightKnee
    {
      OFFSET -0.7531 -40.938 0
      CHANNELS 3 Zrotation Xrotation Yrotation
      JOINT RightAnkle
      {
        OFFSET 0 -40.1986 0
        CHANNELS 3 Zrotation Xrotation Yrotation
        JOINT RightToe
        {
          OFFSET 0 -4.4182 9.239
          CHANNELS 3 Zrotation Xrotation Yrotation
          End Site
          {
            OFFSET 0 0 6.1981
          }
        }
      }
    }
  }
  JOINT LeftHip
  {
    OFFSET 9.4119 3.9773 -0.7758
    CHANNELS 3 Zrotation Xrotation Yrotation
    JOINT LeftKnee
    {
      OFFSET 0.7532 -40.9383 0
      CHANNELS 3 Zrotation Xrotation Yrotation
      JOINT LeftAnkle
      {
        OFFSET 0 -40.1986 0
        CHANNELS 3 Zrotation Xrotation Yrotation
        JOINT LeftToe
        {
          OFFSET 0 -4.4182 9.239
          CHANNELS 3 Zrotation Xrotation Yrotation
          End Site
          {
            OFFSET 0 0 6.1981
          }
        }
      }
    }
  }
}
MOTION
Frames:	5
Frame Time:	0.0333333
-8.90938e-005 5.03955 9.92337 180 -88.2959 180 -0.0296196 -1.04685 -0.149569 -0.0619884 -2.0936 -0.299755 -0.0619887 -2.09362 -0.299757 1.25781e-005 39.9975 -2.52945e-005 9.31459 -23.2804 9.56722 -19.4107 12.8898 -11.4647 37.7294 -23.2223 29.9571 -10.1782 2.03193 -34.9905 -49.2225 12.0813 61.9503 3.39675e-006 -2.18376e-006 -1.72805e-006 5.86478e-006 -1.4938e-006 -2.32894e-006 5.94562e-006 2.40331e-006 2.82165e-006 3.39675e-006 -2.18376e-006 -1.72805e-006 -0.012821 0.00231212 8.62142e-005 9.18016e-006 1.15273e-005 -2.44334e-006 3.39675e-006 -2.18376e-006 -1.72805e-006 -0.0160694 0.0029847 0.000855128 7.98506e-006 6.17421e-006 4.32409e-007 3.39675e-006 -2.18376e-006 -1.72805e-006 -0.0125809 0.00311845 0.00283336 -5.36386e-006 -6.35279e-006 4.34117e-006 3.39675e-006 -2.18376e-006 -1.72805e-006 5.86478e-006 -1.4938e-006 -2.32894e-006 5.94562e-006 2.40331e-006 2.82165e-006 19.9588 12.8836 6.99103 -36.457 -24.5771 -25.868 8.9291 1.79142 35.075 51.1427 13.3073 -60.5561 6.36111e-015 -9.54166e-015 3.18055e-015 6.36111e-015 -6.36111e-015 4.77083e-015 2.70292e-006 -1.80152e-007 1.42049e-006 6.36111e-015 -9.54166e-015 3.18055e-015 0.0129726 0.00230666 -8.57831e-005 5.22147e-006 5.45759e-006 -8.18667e-007 6.36111e-015 -9.54166e-015 3.18055e-015 0.0163598 0.00303323 -0.000877626 9.59231e-007 9.95256e-007 2.21533e-006 6.36111e-015 -9.54166e-015 3.18055e-015 0.014594 0.00367212 -0.00327134 1.74323e-006 1.27861e-006 -7.94596e-007 6.36111e-015 -9.54166e-015 3.18055e-015 6.36111e-015 -6.36111e-015 4.77083e-015 2.70292e-006 -1.80152e-007 1.42049e-006 -21.9787 -23.3613 -49.0011 -69.1978 53.0752 56.6975 5.43822 12.1918 -12.2518 1.27222e-014 7.14331e-008 6.36111e-015 21.9576 -23.3673 48.9808 69.1519 53.0935 -56.6466 -5.44296 12.2043 12.2369 -6.36111e-015 -1.45893e-008 -3.18055e-015 
-8.72383e-005 4.97449 9.88928 180 -87.7703 180 -0.0304306 -0.881379 -0.149384 -0.0631708 -1.76267 -0.299289 -0.0631704 -1.76267 -0.299288 4.94339e-006 39.9976 -9.99715e-006 9.21745 -23.0471 9.46859 -19.7458 12.4196 -11.8899 38.0809 -23.0482 30.1093 -9.83979 1.97201 -34.976 -49.527 12.06 62.0874 -2.37826e-006 1.10869e-006 -2.84654e-006 -9.53561e-006 -1.83722e-005 -9.54148e-006 -3.91335e-006 2.22783e-006 1.55959e-006 -2.37826e-006 1.10869e-006 -2.84654e-006 -0.0128142 0.00232633 7.13517e-005 -3.44433e-007 -6.75484e-007 -5.23731e-006 -2.37826e-006 1.10869e-006 -2.84654e-006 -0.0160558 0.00298933 0.000846636 -8.69137e-006 -2.97732e-006 4.4739e-006 -2.37826e-006 1.10869e-006 -2.84654e-006 -0.0125861 0.00312423 0.00282303 -4.41146e-006 3.01619e-007 -4.56175e-007 -2.37826e-006 1.10869e-006 -2.84654e-006 -9.53561e-006 -1.83722e-005 -9.54148e-006 -3.91335e-006 2.22783e-006 1.55959e-006 20.3766 12.4021 7.46755 -36.8965 -24.3908 -26.0777 8.55656 1.72655 35.0535 51.4852 13.3325 -60.6616 -6.36111e-015 -6.36111e-015 3.18055e-015 -1.27222e-014 3.18055e-015 -0 6.36111e-015 3.18055e-015 -1.59028e-015 -6.36111e-015 -6.36111e-015 3.18055e-015 0.012949 0.00230478 -8.71491e-005 -1.1613e-005 2.53e-005 3.02414e-006 -6.36111e-015 -6.36111e-015 3.18055e-015 0.0163149 0.00303562 -0.000870988 6.0073e-006 9.1181e-006 -5.39872e-006 -6.36111e-015 -6.36111e-015 3.18055e-015 0.0146035 0.00366894 -0.00325889 6.36111e-015 3.18055e-015 -6.36111e-015 -6.36111e-015 -6.36111e-015 3.18055e-015 -1.27222e-014 3.18055e-015 -0 6.36111e-015 3.18055e-015 -1.59028e-015 -21.9819 -22.9502 -48.9436 -69.2098 53.0774 56.7074 5.30087 12.2462 -12.1691 1.11015e-005 -1.07843e-005 -1.3294e-005 21.9608 -22.9565 48.9232 69.1642 53.0958 -56.6566 -5.30595 12.2586 12.1542 -5.58688e-006 3.21546e-006 1.63935e-006 
-8.25271e-005 4.90912 9.85458 180 -87.2448 180 -0.0312409 -0.715954 -0.149193 -0.0643544 -1.43183 -0.298813 -0.0643539 -1.43183 -0.29881 -9.71045e-006 39.9977 2.00401e-005 9.12085 -22.8135 9.37049 -20.0838 11.9521 -12.317 38.4326 -22.8731 30.2608 -9.50248 1.91262 -34.9612 -49.8313 12.0381 62.2242 2.38051e-006 -5.31973e-007 2.84435e-006 6.36111e-015 0 -1.59028e-015 -5.27521e-006 -3.46852e-006 9.07498e-007 2.38051e-006 -5.31973e-007 2.84435e-006 -0.012832 0.00231054 9.78492e-005 -3.05095e-006 -3.41187e-007 2.06754e-007 2.38051e-006 -5.31973e-007 2.84435e-006 -0.016032 0.00299437 0.000862249 -7.65664e-006 -4.07833e-006 -1.9372e-006 2.38051e-006 -5.31973e-007 2.84435e-006 -0.0125941 0.00312298 0.00282688 -1.41356e-005 -1.73367e-005 1.85623e-006 2.38051e-006 -5.31973e-007 2.84435e-006 6.36111e-015 0 -1.59028e-015 -5.27521e-006 -3.46852e-006 9.07498e-007 20.7976 11.9241 7.94665 -37.3335 -24.203 -26.2851 8.18315 1.66104 35.0319 51.8278 13.3571 -60.7671 1.04488e-005 -1.14833e-005 -1.64807e-006 2.70453e-006 -6.40467e-006 2.98485e-006 -0 0 1.59028e-015 1.04488e-005 -1.14833e-005 -1.64807e-006 0.0129547 0.00231477 -8.73755e-005 9.54166e-015 -3.18055e-015 -0 1.04488e-005 -1.14833e-005 -1.64807e-006 0.0163286 0.0030364 -0.000869066 -3.18055e-015 0 -1.59028e-015 1.04488e-005 -1.14833e-005 -1.64807e-006 0.01458 0.00366597 -0.00325722 0 0 -1.59028e-015 1.04488e-005 -1.14833e-005 -1.64807e-006 2.70453e-006 -6.40467e-006 2.98485e-006 -0 0 1.59028e-015 -21.9854 -22.5396 -48.8863 -69.2224 53.0797 56.7176 5.16341 12.3004 -12.0863 1.83493e-006 -4.22624e-006 2.19498e-006 21.9645 -22.5457 48.8657 69.1767 53.098 -56.6668 -5.1689 12.3127 12.0715 -3.67139e-006 8.38706e-007 -4.39207e-006 
-7.97133e-005 4.84341 9.8193 -180 -86.7193 -180 -0.0320492 -0.550559 -0.148988 -0.0655353 -1.10107 -0.298308 -0.0655346 -1.10103 -0.298305 -5.11898e-006 39.9976 1.07185e-005 9.02478 -22.5796 9.27293 -20.4247 11.4871 -12.7461 38.7848 -22.697 30.4114 -9.16639 1.85364 -34.9463 -50.1356 12.0153 62.361 -3.18055e-015 6.36111e-015 1.59028e-015 -4.63949e-006 -3.73627e-006 -8.89571e-006 -6.09728e-006 3.71712e-006 4.18148e-007 -3.18055e-015 6.36111e-015 1.59028e-015 -0.012839 0.00231753 7.54317e-005 4.10537e-006 1.66804e-005 -6.64916e-006 -3.18055e-015 6.36111e-015 1.59028e-015 -0.0160627 0.00299351 0.000848899 -8.14554e-006 4.68159e-006 -3.95009e-006 -3.18055e-015 6.36111e-015 1.59028e-015 -0.0125926 0.00312696 0.00281357 -2.3824e-006 6.0108e-007 -2.84231e-006 -3.18055e-015 6.36111e-015 1.59028e-015 -4.63949e-006 -3.73627e-006 -8.89571e-006 -6.09728e-006 3.71712e-006 4.18148e-007 21.2219 11.4496 8.42837 -37.7684 -24.0137 -26.4903 7.80936 1.59517 35.0102 52.1704 13.381 -60.8728 -7.75904e-007 -2.71687e-006 3.0121e-006 -3.09091e-006 -4.8351e-007 9.13403e-008 -6.97511e-006 4.28342e-006 5.70031e-008 -7.75904e-007 -2.71687e-006 3.0121e-006 0.0129531 0.00233694 -9.3199e-005 -1.72844e-006 -6.55585e-006 2.3675e-006 -7.75904e-007 -2.71687e-006 3.0121e-006 0.0163172 0.00304059 -0.000878941 -4.44149e-006 -1.02017e-006 -6.16297e-007 -7.75904e-007 -2.71687e-006 3.0121e-006 0.0146017 0.00368441 -0.00326837 -1.22065e-005 1.69442e-005 8.84377e-007 -7.75904e-007 -2.71687e-006 3.0121e-006 -3.09091e-006 -4.8351e-007 9.13403e-008 -6.97511e-006 4.28342e-006 5.70031e-008 -21.9894 -22.1289 -48.8291 -69.2349 53.0819 56.7279 5.02588 12.3543 -12.0034 5.76419e-006 7.66549e-007 6.05524e-006 21.9686 -22.1351 48.8083 69.1895 53.1003 -56.6772 -5.0317 12.3666 11.9886 3.23838e-006 6.49537e-006 -2.77068e-006 
-7.76708e-005 4.77736 9.78342 -180 -86.1939 -180 -0.0328542 -0.385219 -0.148766 -0.0667107 -0.770338 -0.297764 -0.0667107 -0.770362 -0.297764 3.3857e-005 39.9975 -7.09266e-005 8.92925 -22.3454 9.1759 -20.7684 11.0246 -13.1773 39.1333 -22.5203 30.5596 -8.82814 1.79354 -34.9314 -50.4398 11.9919 62.4976 5.29669e-031 6.36111e-015 -4.77083e-015 -3.70626e-006 2.68405e-006 3.2624e-006 3.70626e-006 -2.68405e-006 -3.2624e-006 5.29669e-031 6.36111e-015 -4.77083e-015 -0.0128366 0.00232794 7.98716e-005 7.52444e-006 1.44493e-005 -1.63887e-006 5.29669e-031 6.36111e-015 -4.77083e-015 -0.0160545 0.00299529 0.000859603 3.3752e-006 -4.86526e-007 -1.73661e-006 5.29669e-031 6.36111e-015 -4.77083e-015 -0.0125798 0.00312958 0.00282623 -5.03121e-006 -1.48928e-005 1.27425e-006 5.29669e-031 6.36111e-015 -4.77083e-015 -3.70626e-006 2.68405e-006 3.2624e-006 3.70626e-006 -2.68405e-006 -3.2624e-006 21.6492 10.9787 8.91262 -38.2044 -23.8232 -26.6946 7.4375 1.53042 34.9882 52.5131 13.4044 -60.9787 6.36111e-015 0 -0 3.18055e-015 0 -6.36111e-015 -6.36111e-015 6.36111e-015 -4.77083e-015 6.36111e-015 0 -0 0.0129436 0.00230902 -9.57642e-005 -2.22639e-014 1.27222e-014 -3.18055e-015 6.36111e-015 0 -0 0.0163251 0.00303146 -0.000881384 1.76556e-031 -6.36111e-015 1.59028e-015 6.36111e-015 0 -0 0.0146211 0.00368241 -0.0032678 3.18055e-015 3.18055e-015 1.59028e-015 6.36111e-015 0 -0 3.18055e-015 0 -6.36111e-015 -6.36111e-015 6.36111e-015 -4.77083e-015 -21.9939 -21.7182 -48.7719 -69.2475 53.0842 56.7382 4.88822 12.408 -11.9204 4.62901e-006 3.49264e-006 1.37543e-006 21.9732 -21.7243 48.751 69.2019 53.1025 -56.6874 -4.89439 12.4202 11.9056 9.25801e-006 -4.60834e-006 2.75123e-006 
